<?xml version="1.0" standalone="no"?>
<!DOCTYPE svg PUBLIC "-//W3C//DTD SVG 20010904//EN"
 "http://www.w3.org/TR/2001/REC-SVG-20010904/DTD/svg10.dtd">
<svg version="1.0" xmlns="http://www.w3.org/2000/svg"
 width="2560.000000pt" height="2560.000000pt" viewBox="0 0 2560.000000 2560.000000"
 preserveAspectRatio="xMidYMid meet">
 

<g transform="translate(0.000000,2560.000000) scale(0.100000,-0.100000)"
fill="#FFFFFF" stroke="none">
<path d="M16250 25569 c-14 -25 -6 -49 14 -49 19 0 35 28 29 51 -7 25 -30 24
-43 -2z"/>
<path d="M15725 25320 c-8 -13 5 -13 25 0 13 8 13 10 -2 10 -9 0 -20 -4 -23
-10z"/>
<path d="M12332 25269 c2 -7 10 -15 17 -17 8 -3 12 1 9 9 -2 7 -10 15 -17 17
-8 3 -12 -1 -9 -9z"/>
<path d="M14950 25213 c-14 -14 -70 -52 -125 -84 -135 -80 -156 -100 -206
-202 -34 -71 -42 -99 -41 -138 1 -38 -4 -54 -19 -67 -27 -23 -24 -29 21 -36
45 -7 71 -31 101 -94 l21 -43 -33 -47 c-19 -26 -46 -57 -60 -70 -15 -12 -44
-47 -64 -77 -37 -56 -66 -70 -93 -43 -9 9 -12 9 -12 0 0 -7 -7 -12 -15 -12 -9
0 -21 -12 -27 -27 -15 -36 -86 -103 -110 -103 -10 0 -33 16 -51 37 -29 31 -40
36 -79 37 -25 1 -44 4 -41 9 6 10 0 9 -35 -9 -25 -12 -36 -13 -53 -4 -17 10
-23 9 -30 -1 -7 -11 -9 -11 -9 1 0 8 -11 28 -24 44 -22 26 -27 28 -55 18 -26
-9 -33 -9 -36 3 -3 8 -7 22 -10 31 -4 11 -11 14 -23 9 -38 -16 -64 -18 -62 -4
5 33 -1 60 -11 53 -8 -4 -8 0 0 15 10 17 9 21 -3 21 -8 0 -18 -4 -21 -10 -9
-15 -25 -12 -25 4 0 11 -21 14 -107 13 -102 -2 -108 -1 -118 20 l-12 23 -54
-40 c-30 -22 -60 -44 -66 -50 -16 -14 -119 33 -133 61 -17 31 -29 22 -25 -21
2 -22 -1 -40 -6 -40 -6 0 -7 5 -3 12 5 8 2 9 -10 5 -10 -4 -26 -2 -36 3 -11 6
-21 6 -25 1 -3 -6 -18 -6 -37 0 -25 7 -34 6 -40 -6 -5 -8 -15 -12 -23 -9 -9 4
-15 0 -15 -9 0 -9 -5 -19 -12 -23 -6 -4 -8 -3 -5 2 3 6 2 16 -3 23 -6 10 -16
2 -36 -30 l-29 -43 -3 42 c-3 34 -10 48 -45 78 -97 85 -191 95 -324 36 -78
-35 -153 -43 -153 -17 0 9 -6 12 -15 9 -8 -4 -15 -1 -15 4 0 11 -38 28 -53 24
-5 -1 -6 8 -2 20 15 53 31 78 47 78 10 0 18 6 18 13 0 22 -17 39 -36 35 -15
-3 -19 -12 -19 -40 0 -20 -5 -42 -12 -49 -6 -6 -9 -18 -6 -27 4 -10 2 -13 -5
-8 -8 5 -11 1 -9 -11 1 -10 -2 -19 -8 -19 -5 -1 -9 2 -7 7 5 20 -9 7 -18 -16
-8 -20 -16 -25 -42 -25 -18 1 -49 9 -68 18 -33 16 -35 20 -38 71 -2 38 3 70
19 108 18 44 19 56 8 69 -7 8 -21 13 -31 11 -15 -4 -18 -1 -12 16 3 12 3 19
-1 15 -4 -4 -14 0 -22 8 -9 8 -29 18 -45 21 -16 3 -27 11 -25 17 5 13 -120 13
-133 0 -4 -5 -10 -18 -12 -29 -2 -12 -10 -19 -20 -17 -9 1 -18 -6 -21 -18 -5
-21 -29 -29 -25 -8 2 6 -5 13 -14 15 -12 3 -15 -1 -12 -14 3 -11 -5 -30 -20
-46 -14 -16 -26 -35 -26 -43 0 -12 -13 -17 -36 -13 -11 2 -64 -55 -64 -68 0
-7 -5 -13 -11 -13 -6 0 -9 -7 -5 -15 3 -9 0 -15 -9 -15 -8 0 -29 -9 -47 -20
-18 -11 -43 -20 -55 -20 -12 0 -24 -4 -27 -9 -12 -18 -88 -22 -113 -6 -24 16
-74 13 -98 -5 -15 -11 -87 -33 -118 -35 -15 -2 -33 -8 -41 -14 -10 -9 -16 -9
-21 -1 -4 6 -14 9 -23 8 -23 -4 -42 50 -22 63 11 7 8 8 -11 4 -24 -6 -27 -3
-38 39 -8 35 -16 46 -31 46 -10 0 -21 4 -24 9 -4 5 -19 4 -37 -2 -26 -10 -32
-9 -44 7 -16 21 -35 13 -35 -14 0 -11 -10 -25 -22 -31 -22 -12 -22 -12 -3 -20
19 -6 19 -8 -5 -17 -14 -6 -19 -11 -12 -11 21 -1 3 -21 -19 -21 -13 0 -19 -6
-17 -17 2 -10 -2 -17 -8 -16 -7 1 -15 -9 -18 -22 -9 -34 -28 -31 -94 13 -77
52 -116 69 -214 93 -45 11 -89 24 -97 29 -7 4 -28 4 -45 -1 -17 -5 -58 -11
-90 -15 -56 -6 -62 -9 -120 -67 -55 -56 -100 -87 -126 -87 -5 0 -25 14 -44 31
-20 17 -40 28 -46 24 -6 -4 -22 0 -35 9 -29 19 -39 20 -29 4 4 -7 -1 -6 -12 3
-10 9 -44 20 -74 24 -30 4 -62 11 -71 16 -18 9 -40 -7 -33 -26 7 -17 -32 -13
-77 7 -150 69 -390 29 -494 -83 -51 -55 -114 -177 -122 -236 -2 -21 3 -60 11
-88 14 -45 14 -51 0 -65 -8 -8 -14 -10 -13 -5 2 6 0 37 -4 70 l-8 61 -78 42
c-44 23 -90 42 -103 42 -22 0 -73 -30 -130 -75 -49 -40 -103 -151 -95 -197 2
-13 2 -18 0 -12 -2 5 -17 18 -34 28 l-31 18 -31 -30 c-30 -28 -126 -81 -174
-96 -18 -6 -30 0 -58 31 -32 35 -35 42 -34 100 2 105 -60 196 -179 264 -78 44
-132 53 -215 34 -92 -21 -115 -34 -172 -97 -51 -56 -84 -118 -85 -156 0 -13
-4 -21 -9 -18 -14 9 0 -37 18 -58 9 -10 32 -27 51 -38 27 -14 29 -18 10 -13
-57 14 -159 17 -196 5 -85 -26 -137 -74 -223 -204 -44 -68 -81 -128 -81 -135
0 -6 -16 -19 -35 -28 -31 -15 -35 -21 -35 -53 0 -30 -6 -42 -37 -67 -21 -16
-54 -38 -73 -49 -19 -10 -36 -22 -38 -26 -2 -5 -12 -8 -23 -8 -11 0 -22 -6
-25 -14 -3 -8 -18 -18 -34 -21 -16 -3 -34 -13 -41 -21 -15 -18 -39 -18 -39 0
0 23 -20 30 -45 16 -25 -14 -40 -49 -22 -51 18 -2 21 -2 45 6 l24 7 -21 -21
c-12 -12 -26 -19 -30 -16 -5 2 -11 -2 -15 -10 -3 -9 -19 -15 -41 -15 -20 0
-34 -4 -30 -9 3 -6 -6 -6 -25 -1 -38 11 -51 -6 -15 -20 32 -12 27 -36 -6 -32
-25 3 -97 -16 -113 -29 -5 -5 -2 -19 8 -34 21 -31 21 -31 -29 -48 -40 -14 -59
-37 -31 -37 22 0 21 -39 -1 -46 -10 -3 -26 -10 -35 -15 -29 -15 -56 -10 -72
12 -10 14 -21 19 -32 15 -13 -5 -15 -9 -6 -18 15 -15 16 -88 1 -88 -6 0 -19 5
-30 11 -15 7 -24 7 -35 -1 -22 -19 -7 -29 36 -24 37 4 40 3 40 -19 0 -35 -17
-46 -52 -36 -17 4 -33 8 -37 7 -21 -2 -29 6 -34 37 -4 22 0 46 9 63 20 39 18
43 -21 26 -41 -17 -71 -18 -80 -3 -9 14 22 47 49 51 32 5 -68 38 -131 43 l-52
5 1 -30 c1 -17 -2 -33 -5 -37 -4 -3 -7 1 -7 10 0 9 -7 17 -15 17 -17 0 -20
-25 -5 -35 13 -8 13 -45 -1 -45 -6 0 -31 16 -55 37 -40 32 -44 39 -39 67 4 17
12 36 19 41 7 6 18 20 25 33 9 17 18 21 39 17 15 -3 6 3 -20 12 -38 13 -50 14
-62 4 -8 -7 -13 -18 -10 -26 7 -18 -19 -78 -53 -120 -31 -38 -43 -44 -43 -19
0 10 -6 14 -14 11 -8 -3 -22 3 -32 14 -22 25 -60 24 -76 -1 -7 -11 -18 -20
-24 -20 -6 0 -17 -7 -24 -15 -7 -9 -33 -25 -57 -36 -53 -24 -58 -34 -38 -82
17 -42 20 -77 5 -77 -5 0 -10 6 -10 13 0 15 -78 77 -96 77 -21 0 -25 -16 -13
-49 9 -27 8 -35 -6 -51 -9 -10 -14 -23 -11 -29 11 -17 -14 -24 -32 -8 -21 17
-91 38 -153 44 -87 9 -168 -61 -198 -172 -22 -80 -18 -87 72 -151 56 -41 83
-66 85 -83 4 -22 1 -23 -52 -19 -31 1 -57 -1 -59 -5 -1 -5 -15 -3 -30 4 -24
11 -34 8 -98 -24 -39 -21 -79 -37 -88 -37 -10 0 -26 -9 -36 -20 -19 -21 -7
-28 13 -8 7 7 12 8 12 3 -1 -15 -26 -45 -37 -45 -5 0 -14 -24 -19 -52 -11 -66
-29 -71 -75 -22 -19 20 -43 44 -53 53 -10 9 -27 24 -38 34 -10 9 -22 17 -28
17 -5 0 -10 5 -10 10 0 6 -6 10 -14 10 -7 0 -40 12 -72 26 -32 14 -78 28 -103
30 -42 5 -54 1 -135 -48 -116 -69 -151 -114 -211 -268 -26 -67 -58 -134 -72
-151 l-26 -30 -31 30 c-17 16 -48 37 -68 46 -21 8 -38 22 -38 30 0 25 -46 48
-84 41 -37 -7 -101 -46 -101 -62 0 -5 -12 -23 -27 -39 -28 -30 -35 -45 -20
-45 4 0 8 -14 9 -32 0 -17 8 -37 17 -43 10 -8 16 -27 16 -53 0 -27 5 -42 16
-46 11 -4 15 -14 12 -30 -6 -30 15 -43 70 -44 23 0 51 -4 62 -7 34 -11 58 4
65 38 10 51 26 85 41 91 21 8 29 -21 16 -58 -21 -58 -17 -69 24 -62 40 8 57
-2 80 -46 21 -40 6 -60 -71 -97 -60 -29 -66 -35 -63 -59 2 -22 -2 -28 -19 -30
-13 -2 -23 1 -23 6 0 17 -44 22 -86 11 -49 -14 -124 -89 -124 -124 0 -22 5
-25 33 -25 18 0 50 9 72 20 35 18 41 18 62 5 13 -9 23 -25 23 -40 0 -25 -23
-55 -44 -55 -6 0 -29 -18 -51 -40 l-39 -40 23 -40 c26 -46 22 -70 -11 -70 -27
0 -167 28 -180 36 -5 3 -15 0 -23 -6 -8 -7 -21 -10 -30 -7 -8 4 -17 1 -21 -4
-4 -7 -23 -8 -50 -4 -37 5 -44 3 -44 -10 0 -9 -12 -20 -28 -26 -15 -5 -32 -19
-38 -32 -5 -12 -16 -21 -23 -19 -7 1 -28 -9 -46 -23 -19 -14 -36 -21 -39 -16
-3 5 -15 11 -26 14 -15 4 -18 2 -12 -9 10 -18 3 -74 -9 -74 -4 0 -15 9 -23 21
-15 22 -36 18 -36 -6 0 -8 19 -20 43 -27 76 -22 87 -34 87 -93 0 -51 -2 -55
-55 -108 -30 -30 -55 -60 -55 -67 0 -7 14 -37 30 -66 30 -52 31 -53 12 -72
-18 -18 -67 -36 -162 -59 l-34 -9 -3 -64 c-2 -47 -7 -68 -20 -77 -26 -20 -66
-15 -102 12 l-34 24 -19 -24 c-10 -13 -27 -27 -38 -30 -11 -4 -29 -24 -40 -46
-11 -21 -24 -39 -29 -39 -5 0 -7 -9 -4 -19 6 -23 -41 -76 -57 -66 -6 4 -16 19
-23 35 l-12 29 -40 -16 c-22 -8 -67 -21 -100 -28 -97 -21 -197 -74 -230 -123
-18 -26 -36 -106 -24 -110 5 -2 14 -12 19 -22 16 -30 -4 -68 -42 -79 -32 -9
-32 -9 -5 -10 23 -1 27 -5 27 -30 0 -16 -6 -36 -13 -43 -7 -7 -16 -21 -20 -31
-8 -22 -27 -13 -27 13 0 10 -7 20 -15 24 -25 9 -28 -35 -6 -78 11 -21 18 -43
15 -47 -7 -11 -34 -12 -34 -1 0 8 -12 15 -62 40 -4 2 -6 -17 -4 -43 l3 -46
-32 31 c-25 24 -38 30 -58 25 -14 -4 -51 -1 -83 5 -72 15 -153 5 -196 -23 -68
-46 -157 -249 -143 -325 18 -98 68 -167 150 -210 42 -21 64 -25 130 -25 108 0
185 23 240 74 51 47 54 82 13 126 -25 27 -34 55 -45 141 -7 58 2 85 33 99 36
17 41 10 25 -33 -10 -29 -11 -38 -1 -44 7 -4 10 -14 8 -21 -8 -23 18 -39 65
-41 25 -2 43 -7 40 -11 -10 -17 -14 -67 -5 -67 5 0 21 -12 35 -26 21 -21 29
-24 46 -14 12 6 21 20 21 31 0 12 5 19 13 16 7 -2 11 -15 9 -30 -3 -21 0 -26
13 -21 8 4 20 15 26 25 11 21 54 26 65 7 4 -6 -3 -20 -17 -31 -13 -10 -43 -37
-67 -59 -44 -41 -50 -58 -14 -39 12 7 22 7 29 0 5 -5 32 -15 59 -22 42 -11 49
-16 46 -36 -2 -25 34 -99 57 -117 9 -7 32 -9 53 -6 22 2 38 1 37 -4 -1 -5 1
-20 5 -34 4 -14 2 -39 -4 -55 -16 -41 3 -54 32 -22 33 36 63 39 64 7 2 -54 1
-53 49 -46 37 6 45 4 45 -8 0 -8 -9 -20 -21 -27 l-21 -11 20 -18 c25 -23 20
-52 -18 -100 -15 -19 -30 -47 -33 -62 -11 -41 -35 -60 -75 -56 -45 4 -56 -20
-13 -28 17 -4 31 -8 31 -10 0 -1 -5 -15 -11 -31 -7 -15 -11 -42 -10 -58 2 -21
-6 -38 -23 -54 -14 -14 -26 -31 -26 -39 0 -8 -29 -44 -64 -81 -100 -102 -108
-147 -36 -195 22 -14 40 -33 40 -41 0 -9 -14 -44 -32 -78 -17 -34 -48 -102
-69 -152 -40 -97 -58 -118 -86 -97 -80 57 -187 73 -276 38 -36 -14 -52 -27
-67 -55 -10 -21 -26 -43 -34 -50 -9 -8 -16 -24 -16 -38 0 -13 -9 -42 -21 -64
-11 -23 -18 -47 -15 -54 7 -18 -5 -27 -20 -14 -7 6 -10 17 -8 24 13 33 -97 58
-142 32 -37 -21 -74 -73 -74 -104 0 -30 42 -79 86 -101 31 -16 75 0 94 33 22
39 48 54 60 35 6 -8 13 -26 16 -40 3 -14 13 -43 24 -66 17 -38 22 -42 93 -62
41 -12 91 -22 111 -22 45 0 46 -12 2 -39 -72 -45 -171 -180 -208 -285 -17 -46
-17 -52 -2 -86 16 -37 87 -89 142 -105 13 -4 22 -14 22 -27 0 -16 -4 -19 -23
-14 -71 21 -80 19 -124 -26 -38 -39 -40 -45 -28 -62 14 -19 15 -18 37 9 13 16
25 32 28 36 6 9 82 30 88 24 8 -8 -20 -35 -29 -29 -5 3 -9 0 -9 -5 0 -6 -6
-11 -14 -11 -24 0 -56 -125 -52 -208 2 -63 0 -76 -19 -96 -24 -26 -43 -136
-23 -136 7 0 7 -4 1 -12 -6 -7 -13 -25 -17 -40 -3 -16 -11 -28 -16 -28 -23 0
-7 -19 21 -25 34 -8 38 -42 4 -37 -52 7 -85 2 -122 -17 -56 -28 -73 -72 -67
-177 3 -66 7 -82 26 -97 l21 -18 -31 -147 c-35 -165 -63 -317 -87 -472 -9 -58
-23 -143 -31 -190 -8 -47 -19 -116 -24 -155 -5 -38 -24 -178 -44 -310 -61
-421 -88 -862 -88 -1406 1 -380 12 -648 43 -1014 63 -765 146 -1213 365 -1975
229 -797 701 -1888 1182 -2735 47 -82 115 -211 151 -285 l66 -135 0 -2540 0
-2540 21 -35 c11 -19 31 -41 45 -48 50 -27 134 3 159 57 8 17 12 290 15 935 5
959 7 1070 30 1152 28 100 121 184 204 184 77 0 146 -62 177 -158 16 -54 18
-152 18 -1664 1 -1304 3 -1609 14 -1620 7 -7 35 -13 62 -13 38 0 55 5 72 23
l23 23 2 382 c6 1215 12 1643 27 1720 28 149 110 237 222 237 48 0 123 -42
152 -84 57 -83 56 -62 62 -949 l5 -819 28 -24 c15 -13 39 -24 52 -24 34 0 75
21 77 39 1 9 2 169 3 356 0 295 3 348 18 398 32 104 132 187 227 187 72 0 123
-34 249 -168 125 -133 150 -152 206 -152 59 0 100 24 130 75 25 41 29 62 37
183 5 75 7 236 3 357 -3 121 -3 350 1 510 7 268 8 287 22 255 8 -19 28 -61 43
-93 16 -31 29 -63 29 -70 0 -7 9 -30 20 -51 11 -22 29 -67 40 -100 11 -34 47
-114 80 -177 32 -62 73 -141 90 -174 16 -33 44 -85 61 -115 17 -30 44 -80 60
-110 37 -70 54 -99 110 -185 25 -38 59 -92 75 -118 25 -42 47 -72 142 -197 23
-31 102 -180 102 -193 0 -6 16 -29 35 -53 42 -51 90 -66 130 -40 49 32 57 82
35 206 -5 30 -19 146 -30 257 -15 152 -17 215 -10 254 6 28 10 82 10 120 0 37
7 94 15 126 8 31 15 72 15 90 0 39 53 210 82 268 12 22 42 78 67 125 25 47 56
112 69 145 13 33 32 81 43 108 10 26 29 71 40 100 12 28 31 70 42 92 12 22 28
54 37 71 8 17 33 58 54 91 l40 60 100 -67 c259 -174 971 -554 1406 -750 718
-323 1537 -604 2160 -740 93 -20 162 -42 155 -48 -3 -3 -71 -5 -151 -4 -123 3
-145 1 -150 -12 -3 -9 -16 -16 -28 -16 -29 0 -30 -29 -2 -30 74 -3 163 -13
171 -20 6 -5 161 -15 345 -22 517 -20 3601 -17 3636 4 12 8 268 25 549 38 257
12 415 26 490 43 l50 11 -65 6 c-36 3 -132 2 -215 -2 -82 -4 -151 -5 -154 -3
-10 11 11 17 81 25 40 5 86 13 101 19 16 6 45 11 66 11 20 0 64 8 97 19 32 10
82 23 109 29 104 22 202 52 257 78 l58 28 23 -22 c20 -18 35 -22 95 -22 112 0
172 36 172 101 0 23 5 28 33 34 17 3 52 10 77 15 86 17 175 32 240 40 36 5 78
13 93 19 16 6 45 11 65 11 21 0 53 5 72 11 19 6 64 15 100 20 167 23 239 38
279 59 24 12 67 29 95 37 28 8 71 28 96 43 54 34 130 65 185 74 22 4 65 21 95
38 30 17 80 43 110 58 30 15 78 43 105 61 28 19 127 72 220 118 121 60 184 97
220 130 51 48 141 106 205 134 19 8 55 30 79 48 82 62 146 108 175 126 16 10
54 37 86 60 32 23 72 49 89 57 17 9 53 35 80 59 27 23 68 56 91 72 196 140
181 127 405 355 81 83 251 231 298 261 23 14 51 36 61 48 11 12 36 31 55 43
20 12 51 34 69 50 19 16 52 40 75 55 68 42 227 194 255 243 14 25 38 61 53 80
27 34 60 94 138 245 31 61 69 126 114 200 7 10 18 25 25 33 6 7 12 17 12 21 0
5 16 19 34 32 30 20 45 39 65 84 2 5 -4 2 -13 -8 -22 -21 -56 -40 -63 -34 -8
8 98 189 146 247 24 30 91 102 148 158 106 106 146 166 158 238 4 21 18 55 31
74 13 19 35 60 49 90 35 74 83 156 122 209 18 23 35 52 38 62 4 10 12 19 19
19 7 0 21 7 32 16 10 8 13 13 7 9 -7 -3 -13 -3 -13 0 0 12 44 92 71 130 36 49
105 146 179 250 30 43 73 99 94 124 22 25 50 71 64 101 13 30 30 62 37 70 7 8
26 39 41 69 15 30 41 74 58 97 17 23 45 64 61 90 35 55 87 134 132 199 18 26
46 84 63 128 17 45 44 102 60 127 16 25 36 64 43 85 19 52 71 141 110 184 16
19 40 59 53 88 13 29 34 70 47 90 13 21 32 62 41 91 10 28 21 52 25 52 4 0 13
22 20 49 7 28 27 81 46 119 18 38 36 84 40 103 4 19 14 45 23 59 9 14 26 59
38 100 12 41 30 98 40 125 9 28 19 57 21 65 7 24 18 -3 44 -100 15 -60 24
-129 28 -235 7 -157 17 -195 51 -195 11 0 35 -8 55 -17 44 -21 51 -54 37 -177
-15 -133 -4 -266 22 -266 33 0 114 132 170 277 19 48 48 117 64 153 16 36 35
99 41 140 14 89 48 226 91 365 69 222 232 855 294 1140 119 542 213 1193 248
1705 20 302 18 1327 -4 1645 -25 349 -84 867 -133 1150 -15 83 -31 179 -37
215 -5 36 -14 74 -18 85 -5 11 -14 58 -21 105 -6 47 -15 90 -19 95 -4 6 -11
33 -14 60 -4 28 -13 77 -21 110 -8 33 -21 89 -29 125 -18 83 -80 320 -113 430
-13 47 -29 103 -35 125 -16 61 -137 457 -147 480 -5 11 -16 43 -24 70 -21 65
-45 135 -56 160 -5 11 -19 47 -30 80 -11 33 -36 105 -56 160 -20 55 -39 108
-42 118 -3 9 -8 17 -12 17 -3 0 -7 14 -8 31 -1 17 -6 36 -11 43 -4 6 -21 45
-37 86 -25 67 -101 253 -125 305 -5 11 -22 49 -38 85 -56 125 -96 205 -107
212 -5 4 -7 8 -3 8 4 0 -9 33 -29 73 -136 278 -177 359 -252 492 -208 372
-401 674 -635 997 -39 53 -120 169 -181 258 -140 204 -215 306 -335 451 -52
64 -167 205 -254 315 -130 161 -220 260 -480 520 -177 176 -388 381 -471 454
-82 74 -170 153 -194 175 -24 22 -49 45 -55 50 -144 132 -361 311 -516 427
-509 378 -931 657 -1340 883 -493 274 -1352 665 -1763 804 -208 70 -239 82
-269 109 -19 16 -24 67 -8 77 6 3 10 19 10 35 0 16 9 44 20 62 26 43 26 45
-16 52 -19 4 -37 13 -40 21 -7 18 13 55 31 55 15 0 55 38 55 52 0 4 -6 7 -12
6 -13 -3 -13 6 -2 88 5 36 2 44 -17 58 -13 9 -34 16 -46 16 -25 0 -103 45
-103 59 0 5 -6 9 -12 8 -49 -1 -79 5 -84 18 -6 15 33 65 51 65 6 0 18 16 27
35 16 35 16 35 -10 35 -14 0 -22 3 -19 7 4 3 -2 12 -13 20 -24 17 -26 36 -4
54 12 10 20 10 35 1 15 -10 19 -9 19 1 0 7 -4 17 -10 23 -18 18 0 54 28 54 24
0 25 1 19 59 -7 65 -3 75 24 60 16 -8 19 -6 19 15 0 13 -7 37 -15 52 -20 39
-19 56 5 77 25 21 25 47 1 95 -25 48 -65 85 -88 80 -15 -3 -18 -12 -16 -51 2
-30 -1 -47 -8 -47 -12 0 -53 42 -139 140 -45 52 -151 120 -187 120 -10 0 -32
-13 -48 -30 -33 -34 -45 -38 -45 -12 0 10 -15 41 -33 70 -29 46 -44 57 -132
103 -55 28 -124 64 -152 80 -29 17 -57 28 -62 25 -11 -7 -63 11 -72 25 -3 6
-17 12 -30 14 -13 1 -31 5 -39 8 -8 2 -26 -7 -40 -20z m520 -420 c-1 -55 -89
-173 -129 -173 -34 0 -52 85 -29 135 19 42 158 76 158 38z m223 -414 c30 -8
37 -15 37 -34 0 -14 -13 -39 -29 -57 l-29 -33 -36 17 c-51 25 -59 63 -20 95
34 27 29 26 77 12z m-4973 -34 c0 -8 -2 -15 -4 -15 -2 0 -6 7 -10 15 -3 8 -1
15 4 15 6 0 10 -7 10 -15z m405 -83 c-16 -13 -118 -53 -123 -47 -3 2 6 9 19
14 13 5 40 16 59 25 39 17 59 21 45 8z m3592 -9 c30 -12 7 -37 -52 -55 -58
-18 -81 -19 -220 -3 -16 2 -33 4 -37 4 -5 1 -8 8 -8 17 0 12 6 15 25 10 17 -4
25 -2 25 7 0 34 22 39 139 32 62 -4 120 -9 128 -12z m-3372 -3 c3 -5 2 -10 -4
-10 -5 0 -13 5 -16 10 -3 6 -2 10 4 10 5 0 13 -4 16 -10z m1285 -60 c0 -5 -4
-10 -9 -10 -6 0 -13 5 -16 10 -3 6 1 10 9 10 9 0 16 -4 16 -10z m-1125 -50 c3
-6 -1 -7 -9 -4 -18 7 -21 14 -7 14 6 0 13 -4 16 -10z m4481 -149 c-3 -5 1 -11
8 -14 8 -3 22 -17 31 -31 15 -23 15 -28 -5 -73 -14 -31 -24 -43 -27 -33 -3 8
-14 23 -24 33 -21 20 -25 57 -8 74 11 11 5 33 -9 33 -8 0 -32 -49 -32 -66 0
-6 7 -17 15 -24 19 -15 20 -60 2 -60 -27 0 -59 48 -64 94 -5 45 -5 46 26 52
17 4 29 9 27 13 -2 3 12 7 31 9 19 1 32 -2 29 -7z m125 -121 c12 -41 5 -66
-11 -40 -7 11 -9 7 -7 -15 2 -27 -1 -30 -30 -33 -40 -4 -41 3 -6 40 24 26 26
32 16 58 -10 27 -9 30 7 30 14 0 23 -12 31 -40z m-1805 -35 c4 -8 16 -15 28
-15 11 0 28 -5 36 -11 11 -8 6 -9 -20 -5 -34 6 -88 46 -62 46 7 0 15 -7 18
-15z m-481 -39 c323 -32 371 -36 430 -36 132 0 424 -51 635 -111 89 -25 200
-28 233 -6 19 12 33 13 77 4 30 -5 74 -10 96 -9 33 1 47 -5 69 -28 21 -22 32
-27 41 -19 17 14 123 -7 130 -26 3 -8 -5 -27 -17 -44 -14 -19 -19 -35 -13 -40
14 -13 209 -75 414 -130 260 -70 499 -153 755 -261 121 -50 252 -105 290 -120
39 -15 106 -45 150 -65 44 -21 124 -57 178 -81 104 -47 371 -181 522 -262 234
-125 286 -153 370 -202 50 -29 102 -60 117 -69 15 -9 71 -42 125 -75 219 -131
473 -299 638 -421 61 -45 163 -121 227 -168 99 -74 150 -112 298 -230 78 -62
242 -197 270 -222 216 -196 364 -339 705 -680 480 -479 610 -617 765 -810 30
-37 82 -100 116 -139 33 -39 90 -111 127 -161 36 -49 70 -95 74 -100 52 -67
138 -183 175 -235 25 -36 64 -84 87 -108 22 -23 41 -46 41 -51 0 -4 11 -17 25
-27 14 -11 25 -29 26 -44 0 -22 1 -23 8 -5 8 19 8 19 19 -1 6 -12 8 -24 5 -28
-3 -3 -1 -6 6 -6 13 0 71 -53 71 -65 0 -3 11 -21 25 -39 14 -18 25 -46 26 -62
0 -25 2 -26 9 -9 7 18 9 18 20 -10 7 -16 12 -40 12 -52 -1 -15 5 -23 21 -25
13 -2 22 -10 22 -21 0 -10 6 -22 14 -26 7 -5 11 -17 7 -27 -3 -11 -1 -26 4
-34 9 -13 11 -13 20 0 9 14 15 7 11 -14 -1 -5 5 -6 14 -2 9 3 13 2 10 -4 -3
-5 5 -22 19 -37 15 -15 26 -33 26 -40 0 -7 4 -13 8 -13 5 0 17 -16 28 -35 10
-19 22 -35 27 -35 4 0 12 -10 17 -22 5 -13 26 -50 45 -83 20 -33 48 -85 62
-115 15 -30 30 -57 33 -60 4 -3 44 -79 88 -168 45 -90 82 -160 82 -155 1 4 10
-13 22 -39 11 -26 24 -45 29 -42 5 3 9 -3 9 -14 0 -21 26 -79 40 -87 5 -3 11
-19 15 -35 4 -17 11 -28 16 -25 5 4 6 -1 3 -10 -4 -8 -1 -22 6 -30 6 -8 9 -19
5 -25 -3 -5 1 -13 9 -16 9 -3 13 -10 10 -15 -3 -5 -1 -9 5 -9 9 0 35 -61 36
-85 1 -5 7 -21 15 -35 8 -14 15 -30 16 -37 1 -7 13 -36 27 -65 30 -64 40 -89
41 -106 1 -7 7 -16 14 -21 8 -4 12 -14 11 -22 -2 -8 11 -43 28 -78 17 -35 29
-70 26 -77 -3 -8 -1 -14 5 -14 5 0 17 -21 26 -47 10 -27 21 -56 26 -65 6 -10
7 -24 4 -33 -4 -10 -2 -13 7 -10 10 4 14 -4 14 -27 0 -21 5 -32 12 -31 7 2 10
-4 7 -12 -3 -8 4 -28 16 -46 13 -17 25 -51 28 -75 2 -24 8 -44 12 -44 7 0 16
-34 23 -90 5 -36 18 -83 27 -95 11 -15 24 -77 21 -102 -2 -17 2 -21 12 -17 12
4 14 -5 12 -48 -2 -30 1 -61 6 -69 8 -10 9 -8 4 8 -11 39 7 48 22 12 10 -24
11 -40 3 -62 -7 -21 -7 -42 1 -71 7 -23 12 -57 11 -76 0 -28 2 -24 12 20 l12
55 1 -75 c0 -73 29 -212 45 -218 4 -2 8 -12 8 -22 0 -10 6 -21 13 -23 9 -4 8
-8 -3 -17 -11 -9 -12 -13 -2 -17 6 -2 12 -13 12 -23 0 -10 6 -25 13 -32 8 -7
17 -37 21 -66 8 -60 15 -82 26 -82 5 0 11 10 13 23 l4 22 2 -23 c0 -12 -6 -25
-14 -28 -8 -4 -15 -12 -15 -20 0 -8 7 -14 15 -14 8 0 15 -9 15 -19 0 -11 4
-23 10 -26 5 -3 7 -27 4 -53 -3 -36 -2 -43 6 -32 9 12 10 11 5 -7 -3 -12 -1
-32 6 -44 15 -29 32 -164 32 -257 0 -41 3 -68 7 -62 6 9 10 7 14 -6 12 -38 23
-145 15 -150 -12 -7 -29 31 -29 64 0 22 -6 31 -21 35 -17 5 -20 12 -17 43 3
36 -13 57 -27 35 -4 -7 -15 -5 -33 6 -15 9 -28 17 -29 18 -1 0 2 18 7 40 7 31
5 45 -6 63 -12 18 -15 44 -12 105 3 73 1 82 -16 85 -10 2 -23 -2 -28 -10 -10
-14 -11 -14 6 40 5 16 3 22 -7 22 -21 0 -26 -18 -21 -81 2 -37 0 -49 -6 -39
-5 8 -10 24 -10 35 0 12 -9 47 -20 78 -11 32 -18 63 -14 68 3 5 2 18 -2 27 -4
9 -6 31 -6 47 1 29 1 29 -7 5 -7 -25 -7 -25 -13 -3 -3 13 -2 26 3 29 6 3 5 11
-2 20 -6 7 -8 21 -5 30 4 10 -1 25 -10 35 -14 16 -14 19 -3 19 8 0 20 -5 27
-12 9 -9 12 -9 12 0 0 7 -5 12 -11 12 -5 0 -7 5 -4 11 4 6 0 9 -10 7 -13 -2
-22 8 -31 36 -9 24 -11 43 -5 49 10 10 3 47 -10 47 -5 0 -9 9 -9 20 0 11 -5
20 -10 20 -7 0 -7 6 -1 19 8 14 6 23 -9 36 -14 13 -17 25 -13 48 4 18 2 28 -3
24 -6 -3 -11 8 -12 25 -2 28 -14 60 -45 125 -6 13 -10 38 -10 55 0 18 -6 38
-13 45 -7 7 -20 37 -28 66 -9 28 -27 74 -41 101 -14 27 -25 59 -25 71 0 11 -4
25 -8 31 -5 5 -17 38 -27 74 -10 36 -22 70 -26 75 -3 6 -10 21 -14 35 -6 23
-70 191 -100 265 -6 17 -18 46 -25 65 -7 19 -21 53 -30 75 -10 22 -25 56 -33
75 -9 19 -38 86 -66 147 -28 62 -51 115 -51 118 0 6 -37 92 -52 120 -6 11 -15
28 -20 38 -4 9 -12 26 -18 37 -5 11 -14 28 -19 38 -5 9 -18 36 -30 58 -11 23
-21 49 -21 57 0 8 -3 17 -7 19 -5 2 -19 23 -32 48 -13 25 -36 70 -52 100 -16
30 -29 60 -29 67 0 7 -3 13 -8 13 -4 0 -12 12 -19 28 -7 15 -17 38 -23 52 -6
14 -26 50 -45 80 -19 30 -46 75 -60 100 -14 25 -31 54 -38 65 -6 11 -26 42
-43 70 -227 368 -364 581 -446 695 -18 24 -35 49 -37 54 -2 6 -8 15 -12 21 -5
5 -25 30 -44 53 -19 24 -35 47 -35 51 0 3 -17 27 -37 52 -46 56 -77 95 -103
129 -10 14 -39 52 -64 85 -25 33 -55 72 -68 86 -13 15 -34 41 -48 60 -14 18
-59 72 -100 119 -42 47 -100 114 -129 150 -30 36 -91 106 -136 155 -45 50 -97
108 -116 130 -96 115 -602 622 -764 767 -49 45 -143 131 -208 191 -110 103
-257 227 -404 342 -35 28 -100 79 -146 114 -190 149 -468 351 -483 351 -3 0
-23 13 -43 29 -44 35 -342 234 -431 288 -257 156 -422 253 -560 328 -234 128
-798 403 -1019 497 -373 158 -398 168 -405 168 -4 0 -26 8 -49 19 -123 54
-624 223 -941 316 -145 43 -803 189 -1011 224 -246 42 -645 91 -915 112 -135
10 -201 26 -216 51 -4 6 19 7 58 4 34 -4 57 -3 50 0 -17 8 3 34 27 34 9 1 27
7 41 16 29 17 123 15 375 -10z m-6709 -322 c33 -56 24 -78 -27 -71 -22 3 -42
1 -45 -4 -8 -13 -40 -11 -52 4 -7 9 -5 24 8 52 11 22 19 49 20 61 0 11 5 25
12 32 15 15 49 -15 84 -74z m-1187 -535 c-16 -10 -23 -4 -14 10 3 6 11 8 17 5
6 -4 5 -9 -3 -15z m-23 -59 c-2 -37 -19 -70 -30 -59 -5 4 24 99 29 99 2 0 2
-18 1 -40z m110 -67 c-10 -10 -19 5 -10 18 6 11 8 11 12 0 2 -7 1 -15 -2 -18z
m-18 -65 c-6 -18 -28 -21 -28 -4 0 9 7 16 16 16 9 0 14 -5 12 -12z m-18 -81
c13 -24 13 -29 0 -37 -17 -10 -40 5 -40 27 0 11 -7 13 -30 8 -19 -4 -30 -3
-30 4 0 6 9 11 19 11 11 0 23 5 26 11 11 17 38 5 55 -24z m-650 -61 c-1 -14
-50 -51 -50 -37 0 28 20 60 35 55 8 -3 15 -11 15 -18z m581 4 c26 -14 24 -28
-6 -42 -33 -15 -60 5 -44 33 11 22 22 23 50 9z m-651 -62 c0 -19 -2 -20 -10
-8 -13 19 -13 30 0 30 6 0 10 -10 10 -22z m333 -68 c19 -46 20 -50 9 -50 -9 0
-42 64 -42 80 0 23 16 7 33 -30z m237 13 c0 -7 -8 -17 -19 -22 -10 -6 -24 -24
-31 -40 -18 -43 -36 -46 -38 -5 -2 24 4 41 20 57 25 24 68 31 68 10z m-450
-94 c0 -5 -6 -9 -14 -9 -15 0 -28 24 -19 34 7 7 33 -13 33 -25z m-20 -51 c-1
-18 -25 -48 -39 -48 -6 0 -11 9 -11 20 0 11 7 20 15 20 8 0 15 5 15 10 0 6 5
10 10 10 6 0 10 -6 10 -12z m-193 -245 c3 -7 -4 -11 -16 -10 -12 1 -21 7 -21
15 0 16 32 12 37 -5z m-47 -70 c0 -19 -30 -29 -40 -12 -5 7 -4 21 1 32 8 14
13 16 25 6 8 -6 14 -18 14 -26z m10581 -106 c41 -28 65 -89 50 -130 -13 -34
-54 -60 -93 -60 -42 0 -88 50 -88 96 0 53 46 112 91 116 3 1 21 -9 40 -22z
m-6871 -267 c0 -5 -5 -10 -11 -10 -5 0 -7 5 -4 10 3 6 8 10 11 10 2 0 4 -4 4
-10z m-5215 -10 c3 -5 1 -10 -4 -10 -6 0 -11 5 -11 10 0 6 2 10 4 10 3 0 8 -4
11 -10z m5169 -64 c-8 -64 1 -106 21 -106 8 0 15 -2 15 -4 0 -2 3 -12 7 -21 5
-15 3 -16 -15 -6 -44 23 -57 86 -37 169 10 41 15 23 9 -32z m157 -66 c-15 -10
-19 -49 -5 -54 8 -3 14 -9 14 -15 0 -12 -41 -22 -54 -13 -6 3 -18 7 -26 7 -25
0 -22 38 5 70 20 22 28 26 34 16 6 -10 10 -8 15 5 6 15 9 16 16 4 5 -8 5 -17
1 -20z m-5293 -312 c3 -25 1 -27 -20 -19 -13 4 -24 18 -26 30 -3 19 1 22 20
19 17 -2 24 -10 26 -30z m-510 -510 c17 -17 15 -47 -3 -54 -18 -7 -94 3 -114
16 -23 14 4 38 47 43 20 2 42 4 48 5 5 1 15 -3 22 -10z m14917 -238 c3 -5 1
-10 -4 -10 -6 0 -11 5 -11 10 0 6 2 10 4 10 3 0 8 -4 11 -10z m1585 -150 c0
-5 -2 -10 -4 -10 -3 0 -8 5 -11 10 -3 6 -1 10 4 10 6 0 11 -4 11 -10z m-694
-295 c7 -18 -13 -45 -33 -45 -17 0 -27 24 -19 45 7 20 45 19 52 0z m947 -72
c4 -2 7 -16 7 -31 0 -22 -2 -24 -11 -12 -8 11 -9 7 -5 -17 3 -19 1 -33 -4 -33
-6 0 -10 19 -10 42 0 23 -3 38 -6 35 -9 -8 -44 11 -44 24 0 10 53 4 73 -8z
m-128 -18 c-27 -26 -33 -72 -12 -95 10 -12 9 -12 -5 -1 -10 7 -18 26 -18 41 0
27 33 80 50 80 5 0 -2 -11 -15 -25z m325 -21 c0 -19 -16 -10 -31 17 -10 19 -9
20 10 9 12 -6 21 -18 21 -26z m-41 -32 c6 -20 6 -32 0 -32 -5 0 -9 9 -9 19 0
11 -4 23 -10 26 -5 3 -10 14 -10 23 0 24 19 2 29 -36z m1 -51 c0 -15 -25 -31
-49 -31 l-24 0 22 24 c21 22 51 26 51 7z m-16970 -941 c0 -6 -7 -13 -15 -16
-18 -7 -48 3 -41 14 7 12 56 13 56 2z m-423 -146 c5 -15 -34 -57 -46 -49 -7 3
-11 -3 -11 -14 0 -13 7 -21 17 -21 16 0 16 -1 0 -17 -17 -17 -19 -17 -48 0
-17 9 -37 17 -44 17 -8 0 -18 7 -23 17 -9 14 -10 14 -16 -4 -7 -22 -34 -38
-45 -28 -10 11 24 59 56 78 31 18 111 37 142 33 8 0 16 -6 18 -12z m153 -16
c0 -7 -9 -24 -20 -38 l-19 -25 11 38 c11 35 28 51 28 25z m18289 -183 c48 -55
36 -106 -31 -141 -40 -21 -72 -11 -96 28 -25 41 -19 82 16 121 36 38 72 36
111 -8z m-1449 -229 c0 -25 -24 -53 -34 -38 -2 4 -3 17 -1 28 2 10 4 22 4 27
2 20 31 4 31 -17z m-902 -282 c3 -24 -24 -58 -39 -49 -11 7 -12 58 -2 69 13
13 38 1 41 -20z m-4148 -625 c58 -6 159 -20 225 -31 66 -11 147 -24 180 -28
228 -34 725 -149 918 -212 34 -11 107 -43 162 -71 170 -86 194 -97 258 -121
34 -13 136 -60 227 -106 l165 -82 187 -189 c141 -144 198 -195 235 -211 26
-11 64 -33 83 -48 19 -15 69 -40 110 -55 163 -60 188 -70 265 -108 110 -54
342 -193 458 -274 230 -161 434 -311 515 -378 135 -111 312 -305 406 -443 16
-24 45 -57 65 -73 62 -53 140 -149 227 -279 46 -69 106 -156 134 -195 27 -38
63 -98 79 -132 17 -35 48 -82 69 -105 53 -59 75 -105 167 -350 24 -64 55 -138
69 -165 28 -55 96 -227 96 -244 0 -6 13 -50 29 -97 32 -97 76 -270 96 -377 8
-38 18 -82 24 -98 39 -102 59 -574 31 -742 -7 -44 -16 -123 -20 -175 -3 -52
-16 -167 -28 -255 -12 -88 -28 -214 -36 -280 -23 -181 -54 -376 -66 -409 -19
-55 -12 -86 26 -122 58 -55 132 -43 206 34 41 41 285 440 388 632 101 187 117
216 189 330 36 58 107 186 157 285 96 191 220 422 236 442 6 7 14 10 19 7 16
-10 46 -78 59 -134 7 -30 27 -100 46 -155 18 -55 47 -149 64 -210 17 -60 42
-146 55 -190 13 -44 42 -174 65 -290 45 -230 65 -459 49 -571 -20 -145 -47
-446 -54 -619 -6 -137 -25 -427 -34 -495 -15 -122 -32 -245 -41 -301 -6 -30
-10 -77 -10 -103 0 -52 -15 -143 -62 -369 -30 -149 -41 -185 -118 -397 -60
-163 -176 -508 -200 -595 -11 -40 -40 -115 -64 -167 -24 -51 -60 -151 -80
-222 -70 -247 -187 -503 -298 -651 -41 -55 -103 -147 -138 -205 -34 -58 -93
-148 -130 -200 -37 -52 -101 -147 -143 -210 -42 -63 -110 -164 -152 -225 -42
-60 -106 -159 -142 -220 -151 -251 -223 -348 -388 -524 -52 -56 -121 -137
-152 -179 -90 -122 -427 -513 -482 -560 -28 -24 -60 -61 -71 -82 -44 -87 -424
-530 -508 -593 -37 -28 -114 -96 -172 -152 -114 -110 -201 -178 -361 -281
-221 -142 -276 -182 -378 -279 -115 -108 -194 -176 -227 -193 -11 -6 -39 -11
-62 -10 -54 1 -89 -22 -187 -122 -62 -62 -120 -107 -253 -191 -95 -61 -205
-125 -245 -143 -40 -18 -105 -55 -146 -81 -81 -53 -208 -117 -262 -133 -40
-12 -167 -64 -224 -92 -129 -63 -354 -138 -690 -231 -55 -15 -158 -43 -230
-63 -71 -20 -190 -52 -262 -71 -73 -19 -142 -39 -152 -45 -11 -6 -64 -19 -117
-30 -54 -11 -127 -29 -162 -40 -172 -53 -647 -104 -1084 -116 -290 -8 -430 3
-733 56 -27 5 -95 16 -150 25 -163 27 -249 45 -425 92 -30 8 -89 30 -130 48
-41 19 -102 41 -135 50 -100 28 -378 117 -406 131 -15 8 -33 30 -42 52 -28 69
-112 121 -382 236 -194 83 -276 126 -384 198 -230 154 -308 218 -516 418 -71
69 -157 150 -190 179 -122 109 -478 517 -641 736 -64 86 -164 240 -164 254 0
5 -12 24 -27 44 -84 110 -79 89 -123 498 -48 441 -62 651 -50 734 6 46 0 135
-25 380 -60 570 -84 819 -84 865 1 54 18 553 25 730 3 69 6 206 7 305 2 174 4
182 30 239 30 64 180 226 208 226 13 0 17 -16 22 -80 4 -44 18 -122 31 -173
14 -50 34 -159 45 -242 25 -186 62 -289 164 -451 79 -128 205 -285 270 -337
75 -61 342 -198 437 -226 165 -48 217 -54 391 -43 193 13 387 44 479 78 36 13
116 33 178 44 146 26 218 60 308 142 l71 65 52 -10 c63 -13 88 -2 172 76 154
144 255 331 284 529 35 243 37 280 20 359 -9 41 -24 119 -35 174 -10 55 -39
163 -66 240 -26 77 -59 176 -74 220 -30 89 -41 111 -119 238 -108 174 -270
297 -394 297 -40 0 -68 7 -108 28 -30 16 -101 54 -159 85 -110 58 -300 127
-417 152 -37 8 -112 15 -165 15 -118 0 -165 -16 -323 -106 -117 -68 -175 -88
-175 -61 0 8 48 76 108 150 59 75 130 168 157 207 28 39 104 144 170 233 134
180 188 262 378 577 72 118 179 288 239 377 59 89 108 163 108 166 0 3 17 36
39 74 21 37 62 113 91 168 110 209 146 275 235 430 91 157 115 201 181 320 28
51 128 260 261 545 53 115 210 483 253 595 21 55 56 148 78 207 23 59 57 173
78 253 20 80 49 183 66 228 93 254 105 305 119 482 10 129 15 170 47 395 44
311 44 330 12 658 -30 297 -43 377 -75 462 -14 37 -16 67 -12 173 8 190 12
196 260 442 282 280 375 355 597 483 288 165 658 263 1205 316 285 28 312 29
445 15z m-12490 -474 c-7 -9 -15 -13 -18 -10 -3 2 1 11 8 20 7 9 15 13 18 10
3 -2 -1 -11 -8 -20z m17856 -172 c-10 -10 -19 5 -10 18 6 11 8 11 12 0 2 -7 1
-15 -2 -18z m-9 -55 c-3 -8 -6 -5 -6 6 -1 11 2 17 5 13 3 -3 4 -12 1 -19z
m-17803 -134 c9 -3 16 -12 16 -20 0 -8 7 -14 15 -14 8 0 15 -4 15 -10 0 -23
-40 -8 -55 20 -16 32 -16 34 9 24z m20182 -353 c23 -10 45 -24 49 -31 30 -49
21 -156 -17 -197 -60 -64 -185 -15 -203 81 -11 56 33 133 90 156 29 12 35 12
81 -9z m-1103 -203 c6 -19 -3 -38 -18 -38 -18 0 -28 17 -21 35 7 18 33 20 39
3z m-19536 -80 c-3 -7 -5 -2 -5 12 0 14 2 19 5 13 2 -7 2 -19 0 -25z m21843
-928 c0 -16 -4 -30 -10 -30 -5 0 -10 14 -10 30 0 17 5 30 10 30 6 0 10 -13 10
-30z m-2882 -67 c2 -20 -2 -32 -12 -36 -23 -9 -40 27 -26 54 15 28 34 19 38
-18z m2882 -13 c0 -22 -4 -40 -9 -40 -6 0 -12 -15 -14 -32 -2 -18 -5 -3 -5 33
-1 36 1 69 5 72 15 16 23 5 23 -33z m-41 -27 c-1 -37 -1 -37 -8 -8 -7 28 -5
45 5 45 2 0 3 -17 3 -37z m208 0 c-3 -10 -5 -4 -5 12 0 17 2 24 5 18 2 -7 2
-21 0 -30z m-137 -77 c0 -5 -7 -1 -15 10 -8 10 -14 24 -14 29 0 6 6 1 14 -9 8
-11 15 -24 15 -30z m-30 -46 c0 -5 -2 -10 -4 -10 -3 0 -8 5 -11 10 -3 6 -1 10
4 10 6 0 11 -4 11 -10z m60 -100 c0 -5 -2 -10 -4 -10 -3 0 -8 5 -11 10 -3 6
-1 10 4 10 6 0 11 -4 11 -10z m66 -149 c-3 -20 -6 -45 -6 -55 0 -37 -11 -8
-15 41 -3 40 -1 50 11 50 13 0 15 -8 10 -36z m54 -49 c0 -14 -11 -21 -26 -15
-21 8 -17 23 6 23 11 0 20 -4 20 -8z m-566 -888 c9 -23 8 -24 -10 -17 -10 4
-14 1 -12 -8 3 -14 -2 -19 -22 -19 -17 0 -11 38 8 49 24 14 29 13 36 -5z
m-12728 -4429 c11 -7 26 -33 33 -56 11 -37 51 -82 264 -296 323 -323 329 -335
343 -624 10 -198 -13 -327 -71 -404 -40 -54 -55 -93 -55 -144 0 -60 -13 -72
-112 -101 -50 -15 -74 -29 -98 -57 -30 -34 -32 -40 -27 -89 4 -41 2 -56 -12
-68 -23 -21 -85 -46 -114 -46 -23 0 -25 3 -23 54 1 45 -3 59 -23 80 -38 40
-83 51 -139 33 -26 -9 -76 -23 -112 -32 -36 -9 -130 -37 -210 -63 -139 -44
-150 -46 -257 -45 -122 2 -141 8 -173 53 -38 53 -23 64 74 56 104 -8 125 -1
194 72 90 95 99 146 34 203 -39 34 -19 33 -228 13 -59 -5 -83 -3 -140 16 -64
21 -114 52 -114 72 0 4 -18 46 -41 93 -57 121 -119 153 -201 106 -41 -24 -70
-15 -92 28 -22 41 -20 49 14 78 54 45 55 49 55 323 l1 255 37 105 c21 58 49
122 63 143 28 43 139 119 279 191 115 60 142 63 525 64 233 0 310 -3 326 -13z
m-1102 -1736 c14 -17 26 -35 26 -40 0 -17 -58 23 -69 48 -16 35 11 30 43 -8z"/>
<path d="M15353 24724 c-18 -9 -31 -20 -28 -24 8 -13 40 0 53 21 14 23 15 23
-25 3z"/>
<path d="M15641 24328 c5 -18 9 -35 9 -37 0 -2 7 2 15 9 19 16 19 27 1 46 -25
24 -35 17 -25 -18z"/>
<path d="M14555 24230 c-19 -8 -19 -9 3 -9 12 -1 22 4 22 9 0 6 -1 10 -2 9 -2
0 -12 -4 -23 -9z"/>
<path d="M22320 18341 c0 -6 4 -13 10 -16 6 -3 7 1 4 9 -7 18 -14 21 -14 7z"/>
<path d="M23275 16330 c-3 -5 -1 -10 4 -10 6 0 11 5 11 10 0 6 -2 10 -4 10 -3
0 -8 -4 -11 -10z"/>
<path d="M23341 15634 c0 -11 3 -14 6 -6 3 7 2 16 -1 19 -3 4 -6 -2 -5 -13z"/>
<path d="M23360 15548 c0 -16 5 -28 10 -28 13 0 13 20 0 40 -8 12 -10 9 -10
-12z"/>
<path d="M23420 15309 c0 -5 5 -7 10 -4 6 3 10 8 10 11 0 2 -4 4 -10 4 -5 0
-10 -5 -10 -11z"/>
<path d="M7035 23474 c4 -11 7 -27 7 -37 -1 -15 2 -16 14 -6 20 16 14 53 -10
57 -15 3 -17 0 -11 -14z"/>
<path d="M2567 18696 c-3 -8 1 -17 9 -20 9 -4 14 1 14 14 0 23 -15 27 -23 6z"/>
<path d="M15570 16407 c-25 -12 -151 -93 -280 -180 -400 -270 -598 -402 -785
-525 -99 -65 -263 -181 -364 -258 -593 -450 -832 -638 -846 -664 -35 -68 -7
-137 66 -167 22 -8 39 -19 39 -24 0 -5 -45 -56 -99 -113 -116 -120 -136 -162
-107 -222 20 -42 14 -66 -25 -112 -16 -18 -38 -51 -50 -74 -29 -57 -20 -93 36
-143 l45 -40 5 -105 c8 -157 20 -203 61 -239 58 -52 122 -40 169 32 15 24 17
41 11 126 l-7 98 40 78 c22 43 64 110 94 149 29 39 82 116 119 172 117 179
307 371 599 604 52 41 122 102 157 135 53 51 64 67 69 102 4 33 0 50 -17 79
l-23 37 86 81 c96 91 107 108 107 165 0 51 23 75 191 198 68 50 140 111 160
135 20 24 101 87 180 141 562 381 549 371 549 446 -1 40 -16 66 -57 93 -36 23
-67 22 -123 -5z"/>
<path d="M16130 14461 c-36 -10 -118 -32 -182 -49 -64 -18 -158 -50 -210 -72
-51 -23 -116 -50 -144 -61 -28 -10 -79 -39 -115 -64 -35 -24 -95 -65 -134 -91
-187 -127 -358 -286 -517 -481 -89 -109 -95 -119 -144 -239 -23 -57 -59 -131
-79 -164 -20 -33 -45 -89 -55 -124 -23 -80 -30 -92 -79 -140 -49 -46 -57 -76
-55 -211 2 -110 37 -270 79 -360 13 -27 40 -88 60 -135 42 -94 52 -109 180
-265 50 -60 119 -147 154 -192 83 -111 295 -317 406 -396 102 -73 269 -169
334 -192 58 -20 94 -19 141 5 50 25 52 25 157 -6 167 -50 210 -56 330 -49 234
13 354 77 357 190 0 24 6 49 11 54 6 6 37 16 69 22 57 10 58 10 109 -25 29
-20 64 -36 79 -36 14 0 64 18 110 40 53 25 108 43 153 50 39 5 87 14 107 20
84 24 261 190 305 286 33 73 25 113 -33 160 -24 20 -44 44 -44 53 0 34 71 186
120 256 27 40 53 81 57 92 4 10 28 52 54 93 65 106 94 167 109 230 16 67 17
234 1 314 -9 50 -9 63 4 83 9 13 22 23 30 23 8 0 26 16 42 36 39 51 36 122
-10 241 -46 119 -77 178 -155 297 -92 141 -120 174 -236 273 -55 49 -142 126
-192 173 -97 91 -177 138 -309 180 -118 37 -148 52 -203 102 -71 64 -122 78
-307 88 -222 12 -283 11 -355 -9z m378 -292 c26 -12 74 -30 108 -39 106 -30
115 -39 365 -310 164 -179 239 -268 239 -286 0 -9 -18 -34 -40 -55 -36 -35
-40 -44 -40 -88 0 -64 14 -132 52 -251 21 -69 28 -106 24 -135 -19 -130 -18
-140 13 -278 18 -78 28 -144 24 -152 -4 -7 -27 -27 -50 -44 -47 -34 -72 -71
-268 -400 -77 -128 -149 -239 -160 -246 -11 -7 -42 -15 -70 -18 -49 -5 -51 -4
-78 35 -57 81 -130 84 -229 9 -83 -63 -144 -79 -401 -106 -279 -30 -336 -31
-385 -6 -32 16 -238 186 -298 246 -42 42 -182 222 -216 280 -74 124 -88 162
-95 248 -3 45 -12 99 -20 121 -16 46 -17 118 -3 166 6 19 20 78 31 130 11 52
36 131 55 174 19 44 34 83 34 88 0 4 29 62 64 127 86 159 191 299 268 359 34
26 87 70 118 97 111 97 500 291 670 333 75 19 82 20 163 21 60 1 89 -4 125
-20z"/>
<path d="M17369 11207 c-42 -28 -62 -56 -211 -292 -447 -707 -400 -642 -645
-890 -119 -121 -258 -265 -307 -320 -167 -183 -601 -611 -916 -901 -41 -38
-131 -123 -198 -189 -68 -66 -134 -125 -145 -132 -12 -6 -51 -26 -87 -43 -72
-36 -139 -88 -334 -260 -194 -171 -823 -692 -962 -797 -67 -51 -139 -113 -160
-139 -85 -104 -341 -343 -763 -712 -309 -272 -304 -268 -366 -283 -39 -10 -64
-26 -111 -71 -35 -33 -81 -67 -106 -76 -81 -31 -385 -192 -407 -216 -12 -13
-28 -46 -35 -74 -8 -28 -26 -66 -40 -85 -33 -43 -34 -97 -3 -157 23 -46 272
-288 418 -406 62 -50 77 -68 89 -107 22 -69 67 -110 163 -148 182 -73 366
-153 437 -190 41 -22 138 -73 215 -113 78 -40 159 -84 180 -98 50 -30 231
-111 328 -145 57 -21 90 -26 157 -25 70 1 106 -6 205 -35 167 -49 296 -80 396
-93 124 -17 473 -7 570 15 l77 18 55 -28 c60 -29 103 -29 175 1 34 14 176 57
327 99 117 33 222 78 610 260 213 99 235 115 550 375 566 469 675 562 694 593
28 46 27 95 -4 137 -14 19 -25 38 -25 44 0 14 75 108 184 230 55 61 135 165
179 231 156 236 318 612 376 874 59 267 56 227 56 666 0 393 1 411 20 439 30
44 27 123 -15 511 -5 50 -17 182 -25 295 -17 225 -61 632 -75 695 -5 22 -14
80 -20 128 -6 49 -19 125 -30 170 -11 45 -28 141 -39 212 -33 221 -107 499
-171 640 -58 127 -90 229 -90 284 0 63 -15 93 -60 116 -40 21 -72 19 -111 -8z
m-258 -1075 c15 -9 48 -32 74 -51 80 -57 140 -52 223 20 54 48 64 41 106 -72
21 -56 43 -131 51 -168 7 -36 24 -111 39 -166 14 -55 33 -165 41 -245 43 -402
55 -532 55 -622 0 -91 -2 -102 -32 -159 l-32 -61 27 -196 c41 -298 49 -409 42
-592 -5 -118 -14 -199 -32 -285 -14 -66 -26 -153 -27 -193 l-1 -73 -40 -30
c-21 -16 -47 -42 -56 -57 -16 -24 -129 -285 -129 -296 0 -3 -41 -101 -91 -218
-50 -117 -109 -258 -131 -313 -61 -152 -121 -261 -196 -355 -37 -47 -89 -119
-116 -159 -26 -39 -85 -111 -130 -159 -44 -49 -102 -119 -128 -157 -26 -39
-76 -102 -110 -141 -35 -38 -88 -99 -118 -134 -134 -157 -235 -246 -448 -395
-77 -53 -89 -58 -155 -65 -40 -4 -131 -26 -204 -48 -241 -77 -301 -83 -843
-83 -313 0 -487 3 -510 10 -19 6 -82 11 -140 12 -181 1 -544 28 -640 49 -63
13 -137 35 -195 57 -73 28 -140 55 -165 68 -14 7 -70 32 -125 56 -115 49 -223
111 -310 176 -33 25 -105 67 -160 93 -102 50 -175 109 -177 146 -1 11 9 42 23
69 22 46 24 60 22 170 -2 98 -8 135 -29 202 -27 81 -27 81 -10 135 22 67 19
63 156 176 144 120 479 412 630 551 63 58 140 128 170 155 30 27 96 88 145
135 50 47 115 107 145 133 90 76 404 312 560 421 212 148 257 182 340 262 165
159 269 242 324 259 37 12 69 32 101 64 26 26 96 88 156 137 59 50 165 144
236 210 71 66 147 135 168 154 91 79 189 174 335 326 238 247 481 503 541 571
30 33 85 96 123 138 37 42 86 99 107 126 73 92 370 398 397 408 65 26 110 27
143 4z"/>
<path d="M12661 9872 c-45 -22 -90 -80 -102 -128 -22 -95 -4 -314 38 -459 23
-78 25 -101 20 -183 -5 -73 -3 -100 9 -123 17 -34 89 -89 115 -89 20 0 89 -24
129 -45 31 -16 115 -35 200 -45 60 -7 121 -15 300 -40 159 -22 245 41 245 180
0 75 -13 102 -113 251 -81 120 -85 123 -222 235 -188 152 -259 216 -373 333
-80 81 -118 113 -145 121 -50 14 -62 13 -101 -8z"/>
<path d="M10673 25183 c9 -9 19 -14 23 -11 10 10 -6 28 -24 28 -15 0 -15 -1 1
-17z"/>
<path d="M12934 25155 c-18 -14 -17 -14 14 -15 22 0 32 5 32 15 0 19 -21 19
-46 0z"/>
<path d="M14550 25133 l-45 -24 50 7 c52 7 79 20 69 35 -8 13 -24 9 -74 -18z"/>
<path d="M16073 25130 c-43 -26 -44 -59 -2 -94 40 -34 83 -34 114 0 70 75 -21
150 -112 94z"/>
<path d="M12155 25110 c4 -6 11 -8 16 -5 14 9 11 15 -7 15 -8 0 -12 -5 -9 -10z"/>
<path d="M10394 25101 c4 -7 2 -18 -4 -26 -10 -12 -9 -15 4 -15 9 0 16 7 16
15 0 8 0 18 1 22 0 4 -5 9 -12 12 -7 2 -9 -1 -5 -8z"/>
<path d="M13510 25100 c0 -5 5 -10 10 -10 6 0 10 5 10 10 0 6 -4 10 -10 10 -5
0 -10 -4 -10 -10z"/>
<path d="M11237 25069 c7 -7 15 -10 18 -7 3 3 -2 9 -12 12 -14 6 -15 5 -6 -5z"/>
<path d="M12750 25070 c0 -5 5 -10 10 -10 6 0 10 5 10 10 0 6 -4 10 -10 10 -5
0 -10 -4 -10 -10z"/>
<path d="M13863 25049 c14 -8 22 -8 30 0 8 8 3 11 -18 11 -26 -1 -28 -2 -12
-11z"/>
<path d="M10260 25046 c0 -2 7 -9 15 -16 9 -7 15 -8 15 -2 0 5 -7 12 -15 16
-8 3 -15 4 -15 2z"/>
<path d="M12327 24999 c-17 -10 -24 -39 -9 -39 8 0 35 40 30 45 -2 2 -11 -1
-21 -6z"/>
<path d="M9761 24921 c-8 -5 -9 -11 -3 -15 5 -3 15 1 22 9 14 16 3 20 -19 6z"/>
<path d="M10950 24894 c0 -10 33 -33 48 -34 21 0 13 16 -13 28 -30 14 -35 15
-35 6z"/>
<path d="M11520 24880 c0 -19 3 -21 12 -12 9 9 9 15 0 24 -9 9 -12 7 -12 -12z"/>
<path d="M12507 24828 c-11 -9 -14 -18 -8 -27 8 -12 12 -12 25 -2 17 14 22 41
8 41 -5 0 -16 -6 -25 -12z"/>
<path d="M11928 24823 c7 -3 16 -2 19 1 4 3 -2 6 -13 5 -11 0 -14 -3 -6 -6z"/>
<path d="M12887 24824 c-11 -11 3 -24 24 -24 12 0 19 5 17 13 -5 14 -31 21
-41 11z"/>
<path d="M10410 24750 c0 -5 7 -10 15 -10 8 0 15 5 15 10 0 6 -7 10 -15 10 -8
0 -15 -4 -15 -10z"/>
<path d="M9910 24685 c-14 -17 -7 -45 13 -45 24 0 51 26 44 44 -8 20 -40 21
-57 1z"/>
<path d="M11110 24671 c0 -5 9 -7 20 -4 11 3 20 7 20 9 0 2 -9 4 -20 4 -11 0
-20 -4 -20 -9z"/>
<path d="M8277 24604 c-4 -4 -2 -13 3 -20 13 -14 52 -6 47 10 -4 13 -40 20
-50 10z"/>
<path d="M16235 24479 c-4 -6 -5 -12 -4 -13 8 -7 69 7 69 15 0 13 -57 11 -65
-2z"/>
<path d="M13738 24453 c7 -3 16 -2 19 1 4 3 -2 6 -13 5 -11 0 -14 -3 -6 -6z"/>
<path d="M14300 24381 c0 -5 5 -13 10 -16 6 -3 10 -2 10 4 0 5 -4 13 -10 16
-5 3 -10 2 -10 -4z"/>
<path d="M8296 24351 c-3 -4 1 -17 9 -27 13 -18 15 -18 31 -2 9 9 13 21 10 27
-8 13 -43 15 -50 2z"/>
<path d="M16069 24242 c-6 -18 -15 -32 -20 -32 -6 0 -5 -8 1 -19 14 -28 12
-57 -5 -75 -8 -8 -15 -18 -15 -22 0 -4 -8 -13 -17 -20 -16 -12 -16 -15 -3 -24
8 -5 34 -10 58 -10 38 0 42 2 42 24 0 14 -4 28 -10 31 -17 11 -11 28 9 22 18
-4 18 -3 4 31 -15 37 -6 59 21 49 27 -11 36 -41 21 -70 -8 -15 -10 -27 -4 -27
5 0 9 3 9 8 0 4 14 15 31 24 17 10 27 23 24 28 -5 8 -11 8 -19 1 -14 -12 -26
-5 -26 16 0 14 -12 28 -62 72 l-28 24 -11 -31z"/>
<path d="M16417 24244 c-13 -14 6 -24 44 -24 40 0 52 13 23 24 -21 8 -59 8
-67 0z"/>
<path d="M16000 24225 c0 -8 7 -15 15 -15 8 0 15 4 15 9 0 5 -7 11 -15 15 -9
3 -15 0 -15 -9z"/>
<path d="M16000 24151 c0 -5 9 -11 20 -14 24 -6 27 8 4 17 -21 8 -24 8 -24 -3z"/>
<path d="M16237 24042 c-13 -20 1 -60 26 -77 12 -8 48 -17 80 -21 47 -6 57 -4
57 9 0 19 -21 27 -74 27 -49 0 -73 15 -78 50 -2 18 -5 21 -11 12z"/>
<path d="M7327 24010 c-5 -21 10 -50 27 -50 20 0 16 58 -5 63 -11 3 -19 -2
-22 -13z"/>
<path d="M5680 23970 c0 -11 4 -20 9 -20 11 0 22 26 14 34 -12 12 -23 5 -23
-14z"/>
<path d="M16297 23853 c-2 -10 -8 -26 -12 -35 -5 -13 -2 -18 9 -18 18 0 33 47
19 61 -7 7 -12 4 -16 -8z"/>
<path d="M16982 23769 c-52 -26 -96 -78 -117 -138 -17 -49 -20 -137 -6 -173
11 -29 57 -75 95 -95 40 -21 135 -28 179 -14 65 22 157 149 157 217 -1 40 -35
113 -73 152 -69 72 -154 91 -235 51z"/>
<path d="M5613 23754 c-7 -3 -22 -22 -34 -41 l-22 -36 23 -19 c34 -27 64 -32
99 -14 41 22 41 56 0 90 -30 26 -42 29 -66 20z"/>
<path d="M16409 23690 c-50 -52 -59 -70 -48 -97 13 -36 68 -57 138 -54 36 2
91 63 91 101 0 48 -47 90 -101 90 -36 0 -47 -6 -80 -40z"/>
<path d="M6151 23524 c-30 -22 -13 -39 31 -30 35 7 75 32 66 41 -3 3 -17 1
-32 -4 -17 -7 -26 -7 -26 -1 0 14 -12 12 -39 -6z"/>
<path d="M4110 23415 c0 -20 4 -26 18 -23 9 2 17 12 17 23 0 11 -8 21 -17 23
-14 3 -18 -3 -18 -23z"/>
<path d="M5045 23417 c-52 -25 -122 -93 -149 -145 -9 -17 -16 -53 -16 -80 0
-40 7 -60 39 -110 64 -99 129 -130 246 -117 131 14 224 106 225 221 0 138 -89
235 -230 248 -56 5 -72 3 -115 -17z"/>
<path d="M18170 23412 c-17 -13 -21 -24 -16 -40 9 -28 46 -29 70 -3 39 43 -8
80 -54 43z"/>
<path d="M17370 23410 c0 -5 -13 -25 -30 -43 -34 -39 -37 -52 -14 -61 40 -15
52 -7 68 46 8 28 13 55 10 60 -7 11 -34 10 -34 -2z"/>
<path d="M5520 23321 c0 -48 13 -58 45 -37 31 20 31 33 3 57 -36 29 -48 24
-48 -20z"/>
<path d="M5646 23283 c-12 -13 -6 -53 9 -53 9 0 15 9 15 24 0 26 -12 40 -24
29z"/>
<path d="M5784 23282 c-6 -4 -17 -20 -25 -37 -8 -16 -24 -35 -37 -41 -19 -9
-20 -12 -7 -18 18 -6 55 13 55 30 0 6 11 21 25 34 14 13 25 27 25 32 0 10 -21
10 -36 0z"/>
<path d="M6022 23240 l-21 -50 31 -53 c16 -28 34 -59 38 -67 9 -18 107 -27
123 -11 6 6 20 11 32 12 19 0 19 1 -2 9 -24 10 -23 24 5 67 12 20 12 24 -1 38
-20 20 -37 19 -53 -2 -12 -16 -12 -16 -7 5 7 27 -33 76 -55 67 -8 -3 -21 4
-29 15 -22 32 -39 24 -61 -30z m33 -20 c3 -5 1 -10 -4 -10 -6 0 -11 5 -11 10
0 6 2 10 4 10 3 0 8 -4 11 -10z m80 -60 c7 -12 -53 -43 -71 -36 -27 10 -14 26
16 20 23 -5 30 -3 30 10 0 18 15 22 25 6z"/>
<path d="M5560 23234 c1 -14 33 -49 51 -56 9 -4 28 4 45 19 16 13 23 21 16 18
-7 -4 -19 -1 -27 5 -8 7 -25 10 -37 7 -12 -4 -28 -1 -35 5 -7 6 -13 7 -13 2z"/>
<path d="M5531 23160 c-11 -6 -7 -17 20 -48 29 -35 36 -39 58 -31 13 6 30 8
38 5 10 -4 10 -1 1 14 -18 28 -101 71 -117 60z"/>
<path d="M17559 23116 c-59 -31 -80 -49 -77 -70 4 -31 81 -66 138 -63 38 2 46
6 54 28 10 29 4 66 -16 90 -18 23 -70 30 -99 15z m-12 -61 c0 -8 -4 -12 -9 -9
-4 3 -8 9 -8 15 0 5 4 9 8 9 5 0 9 -7 9 -15z m62 1 c15 -18 -1 -30 -30 -21
-16 5 -18 10 -8 21 15 18 23 18 38 0z"/>
<path d="M5411 23105 c0 -14 28 -50 34 -43 3 3 -3 16 -14 29 -11 13 -20 20
-20 14z"/>
<path d="M17407 23080 c3 -11 7 -20 9 -20 2 0 4 9 4 20 0 11 -4 20 -9 20 -5 0
-7 -9 -4 -20z"/>
<path d="M5800 23051 c0 -5 5 -13 10 -16 6 -3 10 -2 10 4 0 5 -4 13 -10 16 -5
3 -10 2 -10 -4z"/>
<path d="M6088 22933 c7 -3 16 -2 19 1 4 3 -2 6 -13 5 -11 0 -14 -3 -6 -6z"/>
<path d="M18120 22866 c0 -11 9 -16 26 -16 31 0 28 23 -4 28 -15 2 -22 -2 -22
-12z"/>
<path d="M4023 22630 c-27 -11 -53 -59 -53 -99 0 -20 9 -37 31 -55 37 -32 41
-32 90 -4 29 16 42 32 51 61 11 36 10 40 -18 66 -33 32 -69 43 -101 31z"/>
<path d="M3313 22620 c-25 -10 -53 -58 -53 -90 0 -32 28 -67 62 -79 46 -16 53
-14 92 23 47 44 47 77 2 122 -35 35 -61 41 -103 24z"/>
<path d="M4365 22551 c-31 -19 -103 -99 -123 -137 -10 -19 -7 -25 21 -46 17
-14 50 -31 72 -38 22 -7 44 -16 49 -21 6 -5 19 -9 30 -9 37 0 0 -22 -39 -23
-33 -1 -35 -2 -19 -14 16 -12 15 -13 -10 -13 -24 0 -26 -2 -12 -15 8 -8 25
-16 38 -17 13 -2 26 -7 30 -13 5 -6 8 -4 8 5 0 8 19 24 43 35 31 15 44 29 52
53 5 18 13 32 17 32 4 0 8 11 8 23 0 13 14 43 30 65 35 49 35 48 14 56 -8 3
-13 2 -10 -3 4 -5 -5 -4 -19 2 -14 7 -23 16 -22 22 5 13 -32 42 -77 60 -44 19
-45 19 -81 -4z"/>
<path d="M3743 22310 c-49 -29 -67 -74 -64 -153 1 -23 9 -32 47 -48 38 -17 50
-19 73 -9 39 16 66 57 83 121 17 70 14 85 -24 98 -45 16 -79 13 -115 -9z"/>
<path d="M19382 22050 c-38 -35 -22 -82 33 -96 38 -9 59 -1 69 29 23 65 -52
114 -102 67z"/>
<path d="M20292 21758 c-66 -34 -14 -148 68 -148 34 0 80 53 80 92 0 18 -4 39
-9 47 -12 18 -108 25 -139 9z"/>
<path d="M20018 21723 c-39 -10 -11 -73 31 -73 29 0 41 15 41 50 0 15 -31 33
-50 29 -3 -1 -13 -3 -22 -6z"/>
<path d="M3255 21529 c-4 -6 -4 -13 -1 -16 8 -8 36 5 36 17 0 13 -27 13 -35
-1z"/>
<path d="M20690 21240 c0 -11 5 -20 10 -20 6 0 10 9 10 20 0 11 -4 20 -10 20
-5 0 -10 -9 -10 -20z"/>
<path d="M2470 21090 c0 -15 5 -20 18 -18 9 2 17 10 17 18 0 8 -8 16 -17 18
-13 2 -18 -3 -18 -18z"/>
<path d="M20676 20894 c-3 -9 -6 -23 -6 -31 0 -14 3 -14 20 2 11 10 20 24 20
32 0 18 -27 16 -34 -3z"/>
<path d="M2846 20851 c-4 -5 -2 -20 3 -33 9 -21 10 -21 10 10 1 32 -3 39 -13
23z"/>
<path d="M20894 20752 c-18 -12 -35 -51 -36 -84 -2 -65 83 -91 141 -43 36 31
46 57 31 85 -19 36 -106 63 -136 42z"/>
<path d="M2200 20661 c0 -24 11 -32 28 -22 16 10 5 41 -14 41 -8 0 -14 -9 -14
-19z"/>
<path d="M2560 20660 c0 -5 5 -10 10 -10 6 0 10 5 10 10 0 6 -4 10 -10 10 -5
0 -10 -4 -10 -10z"/>
<path d="M2740 20595 c0 -17 2 -18 24 -9 18 7 12 24 -10 24 -8 0 -14 -7 -14
-15z"/>
<path d="M21332 20273 c-10 -4 -10 -8 -1 -19 13 -16 59 -19 59 -4 0 8 -33 31
-42 29 -2 0 -9 -3 -16 -6z"/>
<path d="M2158 20160 c-23 -22 -36 -40 -29 -40 6 0 14 7 17 15 4 8 11 15 16
15 6 0 21 11 34 25 38 41 6 28 -38 -15z"/>
<path d="M2077 20146 c-10 -25 4 -48 23 -36 10 7 12 12 4 18 -6 4 -13 14 -16
21 -3 12 -6 11 -11 -3z"/>
<path d="M2105 20073 c12 -49 25 -56 49 -30 13 13 29 26 37 29 11 5 12 8 1 19
-10 10 -17 11 -31 2 -11 -7 -23 -8 -32 -2 -24 15 -31 10 -24 -18z"/>
<path d="M1991 20032 c-16 -31 -15 -32 34 -25 36 4 46 2 51 -11 3 -9 10 -14
14 -11 13 8 -33 53 -62 60 -20 5 -29 2 -37 -13z"/>
<path d="M21753 19796 c-56 -25 -59 -91 -5 -118 27 -13 40 -14 65 -6 44 15 67
37 67 63 0 55 -67 87 -127 61z"/>
<path d="M975 19237 c-43 -20 -94 -75 -104 -114 -34 -122 132 -249 248 -189
41 21 98 89 106 126 10 44 -29 116 -82 154 -49 34 -122 44 -168 23z"/>
<path d="M22400 18997 c-48 -24 -27 -77 31 -77 37 0 57 36 40 69 -13 24 -35
26 -71 8z"/>
<path d="M1880 18977 c0 -16 30 -41 53 -45 9 -2 27 7 39 18 l23 21 -28 -6
c-15 -4 -33 -3 -40 2 -22 18 -47 23 -47 10z"/>
<path d="M1837 18954 c-4 -4 -7 -12 -7 -18 0 -6 5 -4 10 4 6 10 10 11 10 3 0
-7 9 -13 21 -13 12 0 19 5 17 13 -5 14 -40 21 -51 11z"/>
<path d="M1851 18879 l-23 -9 25 -20 c41 -33 80 -24 84 18 2 19 -2 22 -30 21
-17 0 -43 -5 -56 -10z"/>
<path d="M2035 18870 c3 -5 8 -10 11 -10 2 0 4 5 4 10 0 6 -5 10 -11 10 -5 0
-7 -4 -4 -10z"/>
<path d="M1994 18793 c-3 -21 -16 -55 -27 -75 -11 -21 -18 -41 -14 -44 3 -3
26 4 51 16 44 21 46 24 46 64 0 29 -6 48 -18 59 -26 24 -30 22 -38 -20z"/>
<path d="M1817 18807 c-7 -19 44 -127 60 -127 7 0 13 9 13 21 0 11 7 27 15 35
19 19 19 34 1 34 -8 0 -21 7 -30 15 -8 9 -18 16 -21 15 -17 -1 -18 1 -5 10 12
8 11 10 -6 10 -12 0 -24 -6 -27 -13z"/>
<path d="M2120 18770 c0 -12 41 -50 54 -50 6 0 3 5 -7 11 -9 6 -14 15 -11 21
4 6 0 14 -7 19 -18 11 -29 11 -29 -1z"/>
<path d="M1204 18635 c1 -56 11 -73 21 -32 7 30 0 80 -12 84 -5 2 -9 -21 -9
-52z"/>
<path d="M1282 18623 c3 -54 5 -58 28 -58 19 0 24 5 22 20 -4 28 -35 95 -45
95 -4 0 -7 -26 -5 -57z"/>
<path d="M1809 18656 c14 -14 30 -26 38 -26 25 0 13 16 -24 34 l-38 18 24 -26z"/>
<path d="M1136 18652 c-7 -12 31 -82 45 -82 13 0 12 3 -15 50 -13 23 -26 37
-30 32z"/>
<path d="M1919 18637 c-21 -30 -43 -86 -36 -93 9 -9 27 6 27 21 0 8 9 29 20
47 11 18 20 36 20 41 0 14 -15 6 -31 -16z"/>
<path d="M2004 18634 l-31 -15 2 -87 c1 -48 -2 -95 -7 -104 -11 -22 -1 -23 46
-3 l36 15 -22 41 c-15 28 -19 43 -12 46 7 2 10 12 7 23 -3 10 5 32 17 48 12
17 19 35 16 41 -9 14 -15 14 -52 -5z"/>
<path d="M2110 18629 c0 -6 -9 -24 -20 -39 -20 -28 -20 -28 0 -23 10 3 18 10
17 16 -3 16 41 21 59 6 12 -10 13 -9 8 7 -4 10 -11 25 -17 32 -12 15 -47 16
-47 1z"/>
<path d="M2220 18630 c-13 -8 -12 -10 3 -10 9 0 17 5 17 10 0 12 -1 12 -20 0z"/>
<path d="M1783 18533 c-27 -10 -13 -29 20 -25 30 3 34 0 51 -37 11 -25 30 -48
48 -57 l31 -16 -22 33 c-12 19 -32 51 -44 71 -22 37 -47 46 -84 31z"/>
<path d="M2084 18455 c-16 -14 -24 -25 -17 -25 16 0 73 33 73 43 0 15 -28 6
-56 -18z"/>
<path d="M2262 18397 c-15 -17 1 -42 23 -33 18 6 17 37 -1 43 -6 2 -16 -2 -22
-10z"/>
<path d="M2123 18393 c-22 -4 -22 -6 14 -59 20 -31 40 -51 45 -46 12 12 -11
112 -25 111 -7 -1 -22 -4 -34 -6z"/>
<path d="M1855 18315 c-21 -28 -24 -39 -15 -50 16 -20 50 2 50 32 0 25 17 31
26 10 4 -12 -8 -55 -31 -109 -4 -11 -3 -18 4 -18 6 0 14 12 17 28 4 15 12 34
19 42 7 8 18 25 24 38 11 20 9 25 -11 42 -33 28 -52 24 -83 -15z"/>
<path d="M2010 18273 c0 -9 -11 -31 -25 -49 -46 -60 -26 -86 47 -62 52 18 59
42 23 80 -14 15 -25 32 -25 38 0 5 -4 10 -10 10 -5 0 -10 -7 -10 -17z m13 -58
c-5 -13 -23 -22 -23 -11 0 15 14 35 21 31 4 -3 6 -12 2 -20z"/>
<path d="M1192 18184 c4 -21 22 -23 26 -1 2 10 -3 17 -13 17 -10 0 -15 -6 -13
-16z"/>
<path d="M1565 18081 c-6 -11 9 -23 19 -14 9 9 7 23 -3 23 -6 0 -12 -4 -16 -9z"/>
<path d="M1775 18031 c-3 -6 0 -13 7 -15 7 -1 34 -10 59 -18 25 -9 52 -13 59
-8 14 8 -39 30 -74 30 -12 0 -27 5 -33 11 -8 8 -13 8 -18 0z"/>
<path d="M1435 17909 c-4 -6 -5 -12 -2 -15 7 -7 37 7 37 17 0 13 -27 11 -35
-2z"/>
<path d="M1581 17829 c-13 -11 -21 -23 -17 -26 4 -4 16 3 28 15 28 28 20 36
-11 11z"/>
<path d="M1247 17793 c-11 -10 -8 -41 4 -49 17 -10 32 12 24 35 -6 21 -16 26
-28 14z"/>
<path d="M1000 17715 c-8 -9 -8 -15 -2 -15 12 0 26 19 19 26 -2 2 -10 -2 -17
-11z"/>
<path d="M1580 17567 c0 -8 7 -18 16 -21 11 -4 14 -1 12 11 -4 21 -28 30 -28
10z"/>
<path d="M1298 17346 c-20 -45 13 -76 42 -41 10 12 10 21 2 40 -15 32 -29 32
-44 1z"/>
<path d="M1192 17160 c-28 -45 -5 -62 52 -40 25 9 35 34 19 43 -29 16 -60 15
-71 -3z"/>
<path d="M1360 16420 c0 -11 0 -23 -1 -27 -1 -14 17 -13 36 1 20 15 20 15 0
30 -27 21 -35 20 -35 -4z"/>
<path d="M1177 16403 c-3 -5 -1 -17 4 -28 4 -11 8 -15 8 -8 1 6 4 18 7 27 6
16 -11 23 -19 9z"/>
<path d="M1275 16167 c-4 -10 -5 -21 -1 -24 10 -10 18 4 13 24 -4 17 -4 17
-12 0z"/>
<path d="M1502 16005 c-7 -8 -9 -15 -4 -15 5 0 15 7 22 15 16 19 -1 19 -18 0z"/>
<path d="M1275 15970 c-19 -8 -19 -9 3 -9 12 -1 22 4 22 9 0 6 -1 10 -2 9 -2
0 -12 -4 -23 -9z"/>
<path d="M943 14642 c-13 -2 -23 -8 -23 -13 0 -18 31 -22 47 -7 17 18 8 26
-24 20z"/>
<path d="M1170 14352 c0 -5 7 -17 15 -28 15 -19 20 -8 9 20 -6 17 -24 22 -24
8z"/>
<path d="M940 14260 c0 -5 5 -10 10 -10 6 0 10 5 10 10 0 6 -4 10 -10 10 -5 0
-10 -4 -10 -10z"/>
<path d="M837 13684 c-14 -14 -7 -35 11 -32 9 2 17 10 17 17 0 16 -18 25 -28
15z"/>
<path d="M23710 8747 c-22 -12 -25 -19 -25 -71 1 -51 4 -61 28 -82 31 -27 60
-30 96 -10 36 20 49 52 40 99 -12 68 -74 97 -139 64z"/>
<path d="M805 8380 c3 -5 11 -10 16 -10 6 0 7 5 4 10 -3 6 -11 10 -16 10 -6 0
-7 -4 -4 -10z"/>
<path d="M23435 8176 c-32 -9 -41 -17 -43 -38 -7 -62 51 -118 123 -118 69 0
103 41 90 108 -10 55 -81 75 -170 48z"/>
<path d="M23357 7713 c-12 -11 -7 -40 8 -53 22 -18 39 1 31 34 -6 25 -25 34
-39 19z"/>
<path d="M1577 7394 c-9 -10 4 -34 18 -34 8 0 13 9 12 20 -1 19 -17 27 -30 14z"/>
<path d="M22334 6883 c-33 -6 -56 -38 -56 -76 0 -82 46 -106 114 -59 24 16 49
41 57 55 11 21 11 28 -4 51 -10 14 -25 26 -34 26 -9 0 -25 2 -36 4 -11 2 -30
2 -41 -1z"/>
<path d="M22920 6034 c-96 -42 -151 -147 -119 -231 12 -34 64 -90 101 -109 34
-18 109 -18 151 0 39 16 113 97 119 130 3 13 -1 44 -7 69 -30 119 -144 185
-245 141z"/>
<path d="M21839 5281 c-38 -38 -39 -80 -1 -121 38 -43 91 -44 132 -5 34 33 37
59 12 98 -43 64 -96 75 -143 28z"/>
<path d="M7025 2877 c-16 -8 -49 -35 -72 -60 -67 -73 -70 -150 -6 -213 58 -59
124 -70 197 -34 84 41 113 134 67 216 -45 81 -124 119 -186 91z"/>
</g>
</svg>
